# xmcd
#
# Track frame offsets: 
#        150
#        19097
#        39444
#        62368
#        88885
#        114927
#        128032
#        142779
#        161416
#        180725
#        205942
#        227865
#        244190
#        264646
#        293047
#        320402
#
# Disc length: 4629 seconds
#
# Revision: 0
# Processed by: cddbd v1.5.2PL0 Copyright (c) Steve Scherf et al.
# Submitted via: ExactAudioCopyFreeDBPlugin 1.0
#
DISCID=d7121310
DTITLE=Big Daddy Wilson and Doc Fozz - ...Doin' It Right
DYEAR=2008
DGENRE=Blues
TTITLE0=Ain't No Slave
TTITLE1=Doin' It Right
TTITLE2=Keep On Trying
TTITLE3=Why
TTITLE4=True love
TTITLE5=Show Dog
TTITLE6=Alberta
TTITLE7=Walking Blues
TTITLE8=Rest Of My life
TTITLE9=Railroad Work Song
TTITLE10=Intercity Train
TTITLE11=Summertime Intro
TTITLE12=Summertime
TTITLE13=Big Boss Man
TTITLE14=Where You Been So Long
TTITLE15=Thanks For The Night
EXTD=
EXTT0=
EXTT1=
EXTT2=
EXTT3=
EXTT4=
EXTT5=
EXTT6=
EXTT7=
EXTT8=
EXTT9=
EXTT10=
EXTT11=
EXTT12=
EXTT13=
EXTT14=
EXTT15=
PLAYORDER=
